<?xml version="1.0" encoding="utf-8"?>
<!-- Generator: Adobe Illustrator 26.3.1, SVG Export Plug-In . SVG Version: 6.00 Build 0)  -->
<svg version="1.1" id="Layer_1" xmlns="http://www.w3.org/2000/svg" xmlns:xlink="http://www.w3.org/1999/xlink" x="0px" y="0px"
	 viewBox="0 0 1119.69 810.71" style="enable-background:new 0 0 1119.69 810.71;" xml:space="preserve">
<style type="text/css">
	.st0{fill:#8686C0;}
	.st1{fill:#CD2F55;}
	.st2{fill:#FFFFFF;}
	.st3{fill:none;stroke:#FFFFFF;stroke-miterlimit:10;}
</style>
<g>
	<polygon class="st0" points="355.77,334.75 355.77,337.27 355.77,419.13 266.34,376.94 	"/>
	<rect x="470.22" y="334.5" class="st0" width="10.61" height="84.69"/>
	<path class="st0" d="M525.35,345.33c0,0,26.72,5.15,27.73,29.4c1.01,24.25-23.75,33.69-23.75,33.69l-7.07,2.68v4.55l25.77-4.55
		l18.69-19.2l2.53-18.19l-8.08-16.67l-13.64-12.13l-25.26-7.07L525.35,345.33z"/>
	<rect x="603.61" y="334.56" class="st0" width="14.15" height="84.88"/>
	<polygon class="st0" points="656.08,419.13 703.39,334.56 717.54,334.56 714.51,343.15 673.37,419.33 	"/>
	<polygon class="st0" points="714.76,358.56 720.32,348.96 752.66,406.56 757.71,419.19 745.08,419.19 	"/>
	<rect x="366.64" y="344.92" class="st1" width="8.59" height="70.23"/>
	<rect x="441.67" y="334.56" class="st1" width="7.33" height="10.36"/>
	<rect x="435.48" y="370.65" class="st1" width="7.33" height="10.14"/>
	<rect x="442.43" y="409.29" class="st1" width="7.33" height="9.84"/>
	<rect x="488.91" y="343.78" class="st1" width="8.59" height="70.23"/>
	<polygon class="st1" points="617.94,334.56 622.05,419.44 630.64,419.44 630.64,334.56 	"/>
	<polygon class="st1" points="678.01,419.44 683.74,419.44 719.31,351.74 716.53,345.74 	"/>
	<path class="st1" d="M769.96,419.44c1.94-2.12,75.03-31.58,75.03-31.58l-118.99-53.31h-11.37l45.98,84.25L769.96,419.44z"/>
	<path class="st1" d="M579.86,376.12c0,0,0.73-37.42-46.5-41.31l11.38,10.11l28.04,31.2H579.86z"/>
	<path class="st1" d="M572.78,376.12h7.07c0,7.33,0.63,40.67-47.73,42.88"/>
</g>
<polygon class="st2" points="443.7,409.15 443.7,419 354.77,419 354.77,334.37 442.44,334.37 442.44,344.73 370.18,344.73 
	370.18,370.5 437.13,370.5 437.13,380.6 369.93,380.6 369.93,409.4 "/>
<polygon class="st2" points="475.53,419.06 491.19,419.06 491.19,409.21 491.19,334.43 475.53,334.43 "/>
<path class="st3" d="M491.19,409.21l37.14-0.51c0,0,31.07-1.52,30.82-31.96s-30.82-31.96-30.82-31.96h-37.14V409.21z"/>
<polyline class="st2" points="528.33,419.06 528.33,419.32 528.33,408.96 491.4,408.96 489.55,416.79 491.19,419.06 "/>
<path class="st2" d="M491.19,334.43h37.96c0,0,44.91,1.01,45.92,42.32c1.01,41.31-46.74,42.32-46.74,42.32v-10.36
	c0,0,30.81,0.08,30.82-31.96c0.01-32.04-32.84-31.96-32.84-31.96h-35.12V334.43z"/>
<rect x="608.67" y="334.43" class="st2" width="16.29" height="84.88"/>
<polygon class="st2" points="662.1,419 707.19,334.43 725.01,334.43 768.96,419.32 750.39,419.06 715.53,347.19 696.37,384.02 
	678.02,419.32 "/>
<polygon class="st2" points="715.22,384.33 694.37,384.33 688.58,394.26 740.07,394.26 734.83,384.33 "/>
<g>
	<g>
		<path class="st2" d="M367.72,460.54c0.66,2.5,2.23,4.23,5.87,4.23c3.58,0,4.89-1.58,4.89-3.55c0-2.08-1.02-3.34-5.75-4.28
			c-5.98-1.21-7.32-3.45-7.32-6.54c0-4.13,3.32-6.43,7.58-6.43c6.32,0,7.87,3.91,8.08,6.29l-3.2,0c-0.36-1.45-1.13-3.37-4.97-3.37
			c-2.63,0-4.25,1.05-4.25,3.14c0,1.73,0.79,2.79,4.96,3.63c7.01,1.43,8.13,4,8.13,7.18c0,3.7-2.47,6.83-8.4,6.83
			c-5.51,0-8.22-2.96-8.83-7.13L367.72,460.54z"/>
		<path class="st2" d="M433.94,447.55l-7.18,0l0-3.13l17.53,0l0,3.13l-7.17,0l0.01,19.65l-3.19,0L433.94,447.55z"/>
		<path class="st2" d="M493.46,444.4l0,12.93c0,5.7,2.76,7.24,5.54,7.24c3.28,0,5.29-1.81,5.29-7.25l0-12.93l3.17,0l0,12.94
			c0,7.29-3.26,10.31-8.56,10.32c-5.24,0-8.61-3-8.61-10.09l0-13.16L493.46,444.4z"/>
		<path class="st2" d="M555.86,444.38l8.07,0c6.26,0,9.85,4.83,9.86,11.01c0,7.3-4.37,11.76-9.91,11.76l-8.01,0L555.86,444.38z
			 M559.04,464.1l4.27,0c4.76,0,7.11-3.48,7.11-8.6c0-5.02-2.63-8.05-6.94-8.08l-4.45,0L559.04,464.1z"/>
		<path class="st2" d="M624.36,444.36l0.01,22.77l-3.17,0l-0.01-22.77L624.36,444.36z"/>
		<path class="st2" d="M692.06,455.66c0,6.41-3.63,11.94-10.2,11.94c-6.25,0-10.08-5.27-10.09-11.94c0-6.3,3.95-11.8,10.19-11.8
			C688.23,443.86,692.06,449.36,692.06,455.66z M675.13,455.58c0,4.76,2.36,8.94,6.87,8.94c4.49,0,6.71-4.15,6.71-8.79
			c0-4.56-2.3-8.78-6.89-8.78C677.52,446.95,675.13,451,675.13,455.58z"/>
		<path class="st2" d="M741.05,460.43c0.66,2.5,2.23,4.23,5.87,4.23c3.58,0,4.89-1.58,4.89-3.55c0-2.08-1.02-3.34-5.75-4.28
			c-5.98-1.2-7.32-3.45-7.32-6.54c0-4.13,3.31-6.43,7.58-6.43c6.32,0,7.87,3.91,8.08,6.29l-3.2,0c-0.36-1.45-1.13-3.37-4.97-3.37
			c-2.63,0-4.25,1.05-4.25,3.14c0,1.73,0.79,2.79,4.96,3.63c7.01,1.43,8.13,4,8.13,7.18c0,3.7-2.47,6.83-8.4,6.83
			c-5.51,0-8.22-2.96-8.83-7.13L741.05,460.43z"/>
	</g>
</g>
</svg>
