<?xml version="1.0" encoding="utf-8"?>
<!-- Generator: Adobe Illustrator 26.3.1, SVG Export Plug-In . SVG Version: 6.00 Build 0)  -->
<svg version="1.1" id="Layer_1" xmlns="http://www.w3.org/2000/svg" xmlns:xlink="http://www.w3.org/1999/xlink" x="0px" y="0px"
	 viewBox="0 0 1119.69 810.71" style="enable-background:new 0 0 1119.69 810.71;" xml:space="preserve">
<style type="text/css">
	.st0{fill:#EC648B;}
	.st1{fill:#8686C0;}
	.st2{fill:none;stroke:#000000;stroke-miterlimit:10;}
	.st3{fill:#010202;}
</style>
<rect x="440.83" y="409.92" class="st0" width="7.33" height="9.84"/>
<g>
	<polygon class="st1" points="354.18,335.38 354.18,337.9 354.18,419.76 264.75,377.57 	"/>
	<rect x="468.62" y="335.13" class="st1" width="10.61" height="84.69"/>
	<path class="st1" d="M523.76,345.96c0,0,26.72,5.15,27.73,29.4c1.01,24.25-23.75,33.69-23.75,33.69l-7.07,2.68v4.55l25.77-4.55
		l18.69-19.2l2.53-18.19l-8.08-16.67l-13.64-12.13l-25.26-7.07L523.76,345.96z"/>
	<rect x="602.01" y="335.19" class="st1" width="14.15" height="84.88"/>
	<polygon class="st1" points="654.48,419.76 701.8,335.19 715.95,335.19 712.92,343.78 671.78,419.96 	"/>
	<polygon class="st1" points="713.17,359.19 718.73,349.59 751.07,407.19 756.12,419.82 743.49,419.82 	"/>
	<rect x="365.04" y="345.55" class="st0" width="8.59" height="70.23"/>
	<rect x="440.08" y="335.19" class="st0" width="7.33" height="10.36"/>
	<rect x="433.89" y="371.28" class="st0" width="7.33" height="10.14"/>
	<rect x="487.32" y="344.41" class="st0" width="8.59" height="70.23"/>
	<polygon class="st0" points="616.35,335.19 620.45,420.07 629.04,420.07 629.04,335.19 	"/>
	<polygon class="st0" points="676.41,420.07 682.15,420.07 717.72,352.37 714.94,346.37 	"/>
	<path class="st0" d="M768.37,420.07c1.94-2.12,75.03-31.58,75.03-31.58l-118.99-53.31h-11.37l45.98,84.25L768.37,420.07z"/>
	<path class="st0" d="M578.27,376.75c0,0,0.73-37.42-46.5-41.31l11.38,10.11l28.04,31.2H578.27z"/>
	<path class="st0" d="M571.19,376.75h7.07c0,7.33,0.63,40.67-47.73,42.88"/>
	<polygon points="443.11,409.9 443.11,419.76 354.18,419.76 354.18,335.13 441.84,335.13 441.84,345.48 369.59,345.48 
		369.59,371.25 436.54,371.25 436.54,381.36 369.34,381.36 369.34,410.16 	"/>
	<polygon points="474.94,419.82 490.6,419.82 490.6,409.97 490.6,335.19 474.94,335.19 	"/>
	<path class="st2" d="M490.6,409.97l37.14-0.51c0,0,31.07-1.52,30.82-31.96s-30.82-31.96-30.82-31.96H490.6V409.97z"/>
	<path d="M490.6,335.19h37.96c0,0,44.91,1.01,45.92,42.32c1.01,41.31-46.74,42.32-46.74,42.32v-10.36c0,0,30.81,0.08,30.82-31.96
		c0.01-32.04-32.84-31.96-32.84-31.96H490.6V335.19z"/>
	<rect x="608.08" y="335.19" width="16.29" height="84.88"/>
	<polygon points="661.51,419.76 706.6,335.19 724.41,335.19 768.37,420.07 749.8,419.82 714.94,347.95 695.78,384.78 677.42,420.07 
			"/>
	<polygon points="714.63,385.08 693.78,385.08 687.99,395.01 739.48,395.01 734.23,385.08 	"/>
</g>
<g>
	<g>
		<path class="st3" d="M369.31,459.79c0.66,2.5,2.23,4.23,5.87,4.23c3.58,0,4.89-1.58,4.89-3.55c0-2.08-1.02-3.34-5.75-4.28
			c-5.98-1.21-7.32-3.45-7.32-6.54c0-4.13,3.32-6.43,7.58-6.43c6.32,0,7.87,3.91,8.08,6.29l-3.2,0c-0.36-1.45-1.13-3.37-4.97-3.37
			c-2.63,0-4.25,1.05-4.25,3.14c0,1.73,0.79,2.79,4.96,3.63c7.01,1.43,8.13,4,8.13,7.18c0,3.7-2.47,6.83-8.4,6.83
			c-5.51,0-8.22-2.96-8.83-7.13L369.31,459.79z"/>
		<path class="st3" d="M435.54,446.79l-7.18,0l0-3.13l17.53,0l0,3.13l-7.17,0l0.01,19.65l-3.19,0L435.54,446.79z"/>
		<path class="st3" d="M495.05,443.65l0,12.93c0,5.7,2.76,7.24,5.54,7.24c3.28,0,5.29-1.81,5.29-7.25l0-12.93l3.17,0l0,12.94
			c0,7.29-3.26,10.31-8.56,10.32c-5.24,0-8.61-3-8.61-10.09l0-13.16L495.05,443.65z"/>
		<path class="st3" d="M557.45,443.63l8.07,0c6.26,0,9.85,4.83,9.86,11.01c0,7.3-4.37,11.76-9.91,11.76l-8.01,0L557.45,443.63z
			 M560.63,463.35l4.27,0c4.76,0,7.11-3.48,7.11-8.6c0-5.02-2.63-8.05-6.94-8.08l-4.45,0L560.63,463.35z"/>
		<path class="st3" d="M625.96,443.61l0.01,22.77l-3.17,0l-0.01-22.77L625.96,443.61z"/>
		<path class="st3" d="M693.66,454.9c0,6.41-3.63,11.94-10.2,11.94c-6.25,0-10.08-5.27-10.09-11.94c0-6.3,3.95-11.8,10.19-11.8
			C689.82,443.1,693.65,448.61,693.66,454.9z M676.73,454.82c0,4.76,2.36,8.94,6.87,8.94c4.49,0,6.71-4.15,6.71-8.79
			c0-4.56-2.3-8.78-6.89-8.78C679.12,446.19,676.73,450.24,676.73,454.82z"/>
		<path class="st3" d="M742.64,459.67c0.66,2.5,2.23,4.23,5.87,4.23c3.58,0,4.89-1.58,4.89-3.55c0-2.08-1.02-3.34-5.75-4.28
			c-5.98-1.2-7.32-3.45-7.32-6.54c0-4.13,3.31-6.43,7.58-6.43c6.32,0,7.87,3.91,8.08,6.29l-3.2,0c-0.36-1.45-1.13-3.37-4.97-3.37
			c-2.63,0-4.25,1.05-4.25,3.14c0,1.73,0.79,2.79,4.96,3.63c7.01,1.43,8.13,4,8.13,7.18c0,3.7-2.47,6.83-8.4,6.83
			c-5.51,0-8.22-2.96-8.83-7.13L742.64,459.67z"/>
	</g>
</g>
<polyline points="527.74,419.82 527.74,420.07 527.74,409.72 490.81,409.72 488.96,417.55 490.6,419.82 "/>
</svg>
